<svg xmlns="http://www.w3.org/2000/svg" viewBox="0 0 64 64" role="img" aria-labelledby="title desc">
  <title id="title">slogs icon</title>
  <desc id="desc">A dark green rounded square with a bold white S-shaped log mark and a bright green signal dot.</desc>
  <rect width="64" height="64" rx="18" fill="#0f3d34"/>
  <path fill="#123e35" d="M18 3h28c8.284 0 15 6.716 15 15v28c0 8.284-6.716 15-15 15H18C9.716 61 3 54.284 3 46V18C3 9.716 9.716 3 18 3Z"/>
  <path fill="#e9fff5" d="M33.8 14.25c7.7 0 12.45 3.35 12.45 8.9 0 2.75-1.6 4.65-4.15 4.65-2 0-3.25-1-3.8-2.75-.55-1.95-2-2.95-4.75-2.95h-4.7c-2.55 0-4.05.95-4.05 2.55 0 1.45 1.15 2.25 3.6 2.65l10.45 1.7c6.25 1 9.75 4.35 9.75 9.65 0 6.65-5.45 11.1-14.25 11.1h-6.15c-8.1 0-13.15-3.65-13.15-9.6 0-2.9 1.7-4.8 4.3-4.8 2.2 0 3.55 1.1 4.15 3.05.7 2.35 2.45 3.45 5.45 3.45h5.4c3.15 0 4.9-1.05 4.9-2.95 0-1.65-1.25-2.55-3.95-3l-10.3-1.65c-6.1-1-9.45-4.2-9.45-9.15 0-6.5 5.25-10.8 13.45-10.8h4.8Z"/>
  <circle cx="47.5" cy="16.5" r="5.5" fill="#2eea8f"/>
  <circle cx="47.5" cy="16.5" r="2.35" fill="#0f3d34"/>
</svg>
